<svg xmlns="http://www.w3.org/2000/svg" width="512" height="512" viewBox="0 0 512 512" version="1.1">
	<path d="M 290.002 24.956 L 276.504 25.500 274.714 34 C 271.274 50.342, 268.860 52.843, 256.260 53.123 C 248.850 53.287, 247.460 52.371, 245.638 46.122 C 244.300 41.532, 244.260 41.500, 239.895 41.500 C 235.552 41.500, 235.488 41.551, 234.475 45.747 C 232.914 52.219, 230.664 53.833, 221.297 55.198 L 213.161 56.384 206.831 52.454 C 201.990 49.449, 199.526 48.543, 196.361 48.605 C 191.170 48.707, 186.096 51.601, 183.500 55.941 C 179.745 62.216, 176.528 64.796, 170.398 66.446 C 161.969 68.715, 152.978 73.414, 148.719 77.776 C 146.700 79.844, 143.124 85.090, 140.774 89.435 C 138.423 93.779, 135.328 98.197, 133.896 99.253 L 131.292 101.172 123.896 97.339 C 116.768 93.645, 116.138 93.506, 106.500 93.503 C 97.790 93.500, 95.791 93.836, 91 96.109 C 70.675 105.752, 64.137 132.249, 76.946 153.067 L 79.870 157.818 75.507 163.436 C 70.869 169.409, 68.710 174.993, 64.463 191.993 C 63.022 197.764, 61.403 203.015, 60.865 203.662 C 60.328 204.309, 56.850 205.762, 53.136 206.890 C 44.781 209.428, 40.453 212.280, 36.567 217.808 C 32.677 223.343, 31.778 233.512, 34.540 240.744 C 37.828 249.353, 45.904 256.281, 55.739 258.930 C 61.135 260.383, 62.131 262.357, 62.167 271.679 C 62.203 280.725, 61.404 281.809, 54.067 282.679 C 46.920 283.525, 43.963 286.152, 43.273 292.266 C 41.975 303.788, 50.396 309.895, 62.004 305.849 C 64.867 304.851, 65.485 304.943, 66.653 306.540 C 67.394 307.553, 68 308.720, 68 309.133 C 68 309.546, 65.727 312.481, 62.949 315.656 C 45.992 335.034, 45.912 361.908, 62.750 382.799 C 68.103 389.442, 79.142 396.661, 88.198 399.442 C 92.505 400.765, 97.407 403.006, 99.091 404.424 C 101.147 406.153, 103.361 407.007, 105.827 407.022 C 112.266 407.060, 117.163 410.153, 124.076 418.546 C 131.659 427.753, 150.420 444.153, 157.456 447.726 C 161.399 449.728, 164.533 450.374, 172.797 450.886 C 180.693 451.375, 183.460 451.917, 184.341 453.148 C 184.979 454.038, 186.972 456.870, 188.770 459.441 C 193.878 466.743, 203.520 470.126, 208.760 466.456 C 209.973 465.606, 212.345 462.906, 214.031 460.456 C 217.559 455.328, 218.531 455.153, 227.282 458.079 C 237.812 461.600, 241.213 466.667, 239.163 475.778 C 237.579 482.816, 238.323 483.095, 257.845 482.774 L 274.500 482.500 275.318 475.500 C 276.539 465.056, 278.050 460.009, 280.401 458.514 C 282.809 456.984, 306.660 454.447, 310.224 455.341 C 311.600 455.687, 313.543 457.621, 314.851 459.949 C 318.883 467.123, 322.978 468.644, 327.587 464.678 C 329.690 462.870, 330.463 461.048, 331.089 456.428 C 332.062 449.237, 334.521 446.697, 342.085 445.075 C 354.732 442.363, 363.775 448.610, 368.603 463.395 C 369.519 466.203, 370.393 468.646, 370.543 468.825 C 370.693 469.004, 372.545 468.061, 374.658 466.731 C 376.771 465.401, 379.780 463.529, 381.344 462.571 L 384.189 460.830 382.142 458.651 C 378.053 454.299, 375.895 446.043, 377.651 441.468 C 378.009 440.535, 384.343 435.773, 391.727 430.886 C 404.313 422.555, 405.475 422.001, 410.326 422.021 C 413.230 422.033, 418.571 423.129, 422.500 424.519 C 429.372 426.951, 429.546 426.962, 432 425.140 C 435.838 422.291, 435.046 420.932, 428.348 418.876 C 419.945 416.297, 416 411.888, 416 405.077 C 416 400.949, 416.666 399.274, 420.462 393.862 C 422.916 390.363, 427.450 383.335, 430.536 378.245 C 433.623 373.155, 436.903 368.588, 437.824 368.097 C 438.746 367.605, 442.200 366.878, 445.500 366.482 C 451.402 365.773, 455 363.874, 455 361.468 C 455 359.262, 464.914 325.395, 466.395 322.540 C 467.992 319.462, 467.692 318.116, 464.298 313.110 C 461.419 308.865, 461.432 307.854, 464.487 298.288 C 467.920 287.539, 467.808 286.453, 463.016 284.008 C 460.530 282.740, 458.800 281.050, 458.415 279.516 C 457.571 276.156, 458.453 243.939, 459.450 241.702 C 459.890 240.713, 462.857 238.134, 466.043 235.971 C 486.408 222.141, 478.439 192.672, 453.211 188.517 C 447.982 187.656, 446.810 186.037, 444.011 175.800 C 441.592 166.952, 436.987 155.586, 427.493 135.029 C 420.186 119.208, 419.849 116.828, 424.104 111.074 C 425.340 109.401, 428.090 106.882, 430.215 105.476 L 434.079 102.919 432.090 100.210 C 430.997 98.719, 429.008 96.164, 427.671 94.531 L 425.239 91.562 422.494 94.825 C 417.100 101.235, 413.453 102.258, 396.645 102.081 C 384.849 101.956, 381.096 101.579, 378.933 100.301 C 369.070 94.475, 369.677 75.971, 380.037 66.657 L 384.894 62.290 381.697 59.296 C 378.282 56.098, 373.963 53, 372.919 53 C 372.569 53, 370.687 55.403, 368.737 58.341 C 364.987 63.989, 360.322 67, 355.321 67 C 353.738 67, 349.306 65.509, 345.472 63.687 C 341.637 61.865, 334.675 58.871, 330 57.034 C 325.325 55.198, 320.305 52.595, 318.844 51.251 C 315.580 48.247, 314 42.323, 314 33.092 C 314 25.187, 312.901 23.828, 306.816 24.206 C 304.992 24.319, 297.426 24.656, 290.002 24.956 M 193.329 59.504 C 190.093 60.864, 189 62.668, 189 66.648 C 189 70.294, 190.536 72.565, 193.962 73.984 C 197.518 75.457, 202.408 73.974, 204.038 70.929 C 207.697 64.091, 200.551 56.467, 193.329 59.504 M 223.128 76.148 C 221.356 76.804, 221 77.751, 221 81.809 C 221 84.489, 220.383 88.733, 219.628 91.239 C 217.098 99.647, 214.087 102.319, 197.908 110.514 C 175.781 121.722, 163.981 130.012, 152.822 142.192 C 137.001 159.459, 134.906 161.302, 126 165.787 C 114.755 171.449, 107.601 172.231, 96.684 168.990 C 88.278 166.494, 87.210 166.759, 84.498 172.005 C 82.220 176.409, 77.003 197.199, 77.002 201.878 C 77 205.910, 77.462 206.699, 82.855 211.878 C 89.845 218.590, 91.982 222.425, 92.721 229.587 C 93.658 238.668, 91.657 243.484, 83.614 251.500 L 76.590 258.500 75.857 265.500 C 75.454 269.350, 75.096 278.249, 75.062 285.275 L 75 298.050 77.589 299.034 C 79.139 299.623, 83.252 299.713, 87.839 299.259 L 95.500 298.500 95.781 293.500 C 95.943 290.626, 95.172 285.311, 93.969 281 C 90.394 268.193, 90.400 267.908, 94.343 263.188 C 98.018 258.789, 98.103 258.432, 99.530 241.500 C 101.638 216.483, 112.059 182.433, 120.136 174.172 C 124.439 169.771, 130.077 168.165, 133.455 170.378 C 134.855 171.296, 136 172.621, 136 173.324 C 136 175.217, 125.587 192.496, 121.733 196.998 C 119.899 199.141, 117.656 203.281, 116.749 206.197 C 114.272 214.157, 111.213 230.437, 110.423 239.855 C 109.647 249.123, 110.070 249.957, 115.559 249.985 C 120.870 250.011, 121.935 248.378, 123.048 238.500 C 125.008 221.093, 131.759 199.259, 139.388 185.648 C 152.141 162.895, 178.633 138.296, 201.595 127.884 C 211.607 123.345, 224.274 119.464, 235.500 117.498 C 250.356 114.896, 250 115.449, 250 94.948 C 250 82.788, 249.660 77.972, 248.750 77.241 C 247.186 75.985, 226.011 75.082, 223.128 76.148 M 273.526 75.944 C 264.148 76.467, 263.476 76.650, 262.290 79 C 260.840 81.875, 260.683 93.998, 261.953 104.973 C 263.041 114.380, 264.828 116.183, 274.674 117.809 C 297.632 121.601, 317.040 131.094, 337.258 148.423 C 361.659 169.337, 377.724 202.661, 381.552 240.300 C 381.933 244.048, 382.895 247.752, 383.693 248.550 C 385.705 250.563, 395.336 250.504, 397.025 248.470 C 398.606 246.565, 397.092 234.259, 393.524 220 C 390.064 206.174, 388.348 201.489, 383.272 192 C 375.311 177.120, 375.694 178.074, 377.031 176.463 C 378.582 174.594, 382.314 174.594, 385.930 176.464 C 387.885 177.475, 390.156 180.644, 393.276 186.714 C 400.598 200.957, 405.128 217.832, 408.392 243.018 C 410.173 256.764, 410.395 257.443, 414.667 262.253 C 416.500 264.317, 418 266.864, 418 267.913 C 418 268.962, 416.683 272.605, 415.073 276.009 C 413.463 279.413, 411.588 285.324, 410.905 289.145 C 409.184 298.776, 410.021 299.546, 422.023 299.366 C 426.935 299.292, 431.640 298.969, 432.477 298.647 C 433.792 298.142, 434 294.117, 434 269.119 L 434 240.175 428.995 234.185 C 422.305 226.178, 420.044 220.954, 420.044 213.500 C 420.044 206.101, 422.322 200.881, 427.881 195.547 C 432.596 191.022, 432.849 189.345, 429.979 181.674 C 426.962 173.609, 425.952 173.041, 410.798 170.884 C 395.819 168.752, 385.457 165.972, 379.377 162.451 C 377.109 161.138, 371.272 155.727, 366.406 150.426 C 351.707 134.413, 336.364 123.218, 313.187 111.594 C 307.099 108.540, 300.547 104.663, 298.627 102.977 C 293.570 98.537, 290.814 92.174, 290.533 84.291 C 290.290 77.457, 288.659 74.746, 285.059 75.194 C 284.201 75.300, 279.012 75.638, 273.526 75.944 M 159.967 89.250 C 154.185 93.158, 153.834 100, 159.186 104.503 C 163.687 108.291, 169.244 107.551, 173.228 102.633 C 176.764 98.267, 174.783 90.913, 169.316 88.117 C 166.067 86.456, 163.671 86.746, 159.967 89.250 M 340.923 91.923 C 338.928 93.918, 338 95.848, 338 98 C 338 102.302, 342.698 107, 347 107 C 351.302 107, 356 102.302, 356 98 C 356 95.848, 355.072 93.918, 353.077 91.923 C 349.147 87.993, 344.853 87.993, 340.923 91.923 M 247.500 131.717 C 221.706 133.298, 195.337 145.838, 174.670 166.352 C 155.443 185.438, 143.409 209.453, 139.915 235.716 C 137.845 251.272, 140.341 274.477, 145.684 289.350 C 156.424 319.247, 177.750 343.177, 205.572 356.553 C 235.363 370.875, 272.314 370.402, 302.500 355.311 C 319.706 346.710, 335.950 332.799, 345.903 318.143 C 372.427 279.085, 371.854 224.331, 344.476 181.878 C 332.987 164.062, 310.656 146.429, 288.975 138.055 C 277.682 133.693, 259.815 130.963, 247.500 131.717 M 127.571 141.571 C 125.450 143.693, 125.585 148.315, 127.829 150.345 C 130.111 152.410, 135.343 152.497, 137.003 150.497 C 138.794 148.338, 138.539 144.253, 136.470 141.967 C 134.331 139.604, 129.743 139.400, 127.571 141.571 M 377 142 C 374.445 144.555, 374.466 147.052, 377.073 150.365 C 379.563 153.532, 383.209 153.791, 386 151 C 389.961 147.039, 387.081 140, 381.500 140 C 380.125 140, 378.100 140.900, 377 142 M 236 149.891 C 216.079 154.314, 198.179 164.658, 183.249 180.374 C 170.391 193.911, 161.153 210.481, 156.295 228.723 C 152.670 242.332, 152.444 262.588, 155.784 274.500 C 161.640 295.388, 168.811 307.808, 183.500 322.508 C 197.928 336.945, 208.310 343.022, 227.500 348.259 C 234.269 350.106, 238.040 350.434, 252 350.391 C 266.516 350.345, 269.667 350.026, 278.208 347.738 C 295.716 343.046, 311.165 333.884, 323.504 320.873 C 335.139 308.606, 342.810 295.144, 347.253 279.198 C 349.097 272.582, 349.396 268.899, 349.378 253 C 349.360 236.241, 349.112 233.586, 346.748 224.794 C 337.021 188.625, 311.323 161.420, 277.500 151.484 C 265.151 147.857, 248.109 147.202, 236 149.891 M 239 172.516 C 228.176 174.728, 214 180.796, 214 183.218 C 214 184.119, 220.651 195.837, 228.475 208.722 C 228.549 208.843, 231.735 207.840, 235.555 206.493 C 239.375 205.145, 243.701 204.033, 245.168 204.021 C 251.063 203.974, 251 204.158, 251 186.893 L 251 171 248.250 171.094 C 246.738 171.146, 242.575 171.786, 239 172.516 M 258.589 171.744 C 258.265 172.068, 258.002 179.346, 258.005 187.917 L 258.010 203.500 264.755 205.275 C 268.465 206.251, 272.400 207.288, 273.500 207.579 C 275.096 208.002, 276.409 206.758, 280 201.414 C 282.475 197.732, 286.188 192.451, 288.250 189.679 C 290.313 186.907, 292 184.279, 292 183.840 C 292 180.391, 261.121 169.212, 258.589 171.744 M 199.577 195.128 C 191.901 202.947, 185.856 211.622, 182.520 219.607 C 181.144 222.899, 181.182 223.043, 183.801 224.396 C 186.886 225.991, 204.636 230.998, 207.208 230.999 C 208.196 231, 210.065 228.999, 211.644 226.250 C 213.145 223.637, 216.066 219.439, 218.137 216.920 L 221.902 212.340 216.065 200.300 C 212.855 193.677, 209.681 187.921, 209.012 187.507 C 208.236 187.028, 204.824 189.783, 199.577 195.128 M 289.067 199.324 C 285.180 205.550, 282.009 211.063, 282.021 211.573 C 282.032 212.083, 283.951 214.683, 286.286 217.352 L 290.531 222.203 294.582 221.112 C 296.811 220.512, 302.819 219.589, 307.935 219.059 C 313.051 218.530, 317.469 217.865, 317.753 217.581 C 319.235 216.098, 310.665 201.846, 303.837 194.439 C 296.662 186.655, 297.057 186.524, 289.067 199.324 M 51.273 224.527 C 48.034 227.766, 47.788 228.424, 48.257 232.589 C 49.139 240.414, 55.154 244.424, 62.415 242.028 C 67.884 240.223, 70.563 234.624, 68.878 228.521 C 67.599 223.887, 63.717 221, 58.765 221 C 55.561 221, 54.123 221.677, 51.273 224.527 M 311.824 225.932 C 307.603 226.865, 302.284 228.470, 300.005 229.498 C 296.629 231.020, 295.969 231.748, 296.441 233.433 C 296.759 234.570, 297.521 238.650, 298.134 242.500 C 298.748 246.350, 299.404 250.063, 299.593 250.750 C 299.843 251.657, 303.077 252, 311.387 252 C 317.684 252, 323.548 252.273, 324.418 252.607 C 325.741 253.115, 326 252.325, 326 247.791 C 326 238, 322.827 223.902, 320.672 224.117 C 320.028 224.182, 316.046 224.998, 311.824 225.932 M 176.809 233.250 C 176.056 235.772, 175.555 242.787, 175.577 250.500 C 175.609 261.647, 175.963 264.498, 178.057 270.500 C 180.243 276.764, 180.763 277.483, 183 277.334 C 185.594 277.163, 201.022 269.003, 205.375 265.500 C 207.840 263.516, 207.856 263.400, 207.294 251.281 L 206.728 239.063 201.177 237.449 C 198.123 236.561, 191.910 234.297, 187.369 232.418 C 182.828 230.538, 178.880 229, 178.595 229 C 178.310 229, 177.506 230.912, 176.809 233.250 M 299.810 259.678 C 298.854 259.930, 297.425 262.214, 296.522 264.933 C 295.644 267.578, 293.348 272.361, 291.421 275.561 L 287.917 281.379 290.931 285.440 C 292.588 287.673, 295.793 292.513, 298.054 296.195 C 303.986 305.861, 304.076 305.894, 308.897 300.284 C 316.153 291.838, 326 269.478, 326 261.448 L 326 259 313.750 259.116 C 307.012 259.180, 300.739 259.433, 299.810 259.678 M 106.010 262.982 C 104.766 265.305, 105.108 272.488, 107.153 286.987 C 107.986 292.893, 108.811 295.160, 111.062 297.724 C 112.632 299.511, 114.392 302.892, 114.974 305.237 C 121.550 331.722, 133.947 354.304, 151.363 371.523 C 163.736 383.755, 175.445 391.656, 196 401.641 C 216.343 411.523, 218.216 413.315, 221.509 426.044 C 222.427 429.595, 223.644 433.063, 224.212 433.750 C 225.622 435.456, 248.100 435.500, 249.800 433.800 C 252.105 431.495, 250.492 392.368, 247.853 386.576 C 246.547 383.711, 244.745 383.073, 230.655 380.485 C 188.408 372.724, 151.789 341.862, 134.860 299.748 C 131.729 291.960, 128.339 279.227, 127.521 272.185 C 126.462 263.053, 125.047 261.788, 115.265 261.222 C 107.712 260.784, 107.126 260.896, 106.010 262.982 M 388.110 262.033 C 382.033 263.293, 380.334 265.172, 379.542 271.508 C 379.172 274.474, 377.548 281.933, 375.934 288.085 C 363.689 334.756, 324.560 371.483, 277 380.943 C 270.206 382.295, 266.056 383.628, 265.241 384.720 C 262.710 388.112, 261.901 393.895, 261.301 412.899 C 260.728 431.010, 260.810 432.388, 262.535 433.649 C 264.726 435.251, 282.116 435.543, 284.952 434.026 C 286.135 433.393, 287.385 430.505, 288.525 425.776 C 291.556 413.198, 293.426 410.964, 305.507 405.479 C 332.607 393.176, 347.447 383.652, 361.501 369.541 C 380.205 350.763, 390.826 331.048, 398.619 300.643 C 401.383 289.860, 403.042 265.828, 401.205 263.174 C 400.007 261.442, 393.637 260.887, 388.110 262.033 M 197.547 277.069 C 190.973 279.785, 185.187 282.413, 184.689 282.911 C 184.150 283.450, 185.124 286.375, 187.103 290.158 C 190.664 296.963, 206.513 314, 209.282 314 C 210.199 314, 211.468 312.260, 212.382 309.750 C 213.233 307.413, 215.786 300.455, 218.056 294.289 L 222.182 283.078 217.400 277.539 C 214.770 274.492, 211.917 272.030, 211.059 272.066 C 210.202 272.103, 204.121 274.354, 197.547 277.069 M 278.211 288.691 C 275.851 290.098, 270.676 292.445, 266.711 293.907 L 259.500 296.564 258.632 309.864 C 258.047 318.838, 258.102 323.502, 258.801 324.201 C 260.589 325.989, 274.746 322.189, 285.500 317.033 C 300.908 309.646, 300.330 311.100, 292.491 299.447 C 282.924 285.224, 283.409 285.590, 278.211 288.691 M 226.648 289.760 C 226.390 290.179, 223.854 296.347, 221.013 303.468 C 216.409 315.007, 216.021 316.542, 217.442 317.581 C 222.133 321.011, 248.648 327.117, 252.476 325.648 C 253.429 325.282, 253.182 323.081, 251.432 316.334 C 250.172 311.475, 248.637 304.960, 248.021 301.856 C 246.904 296.219, 246.897 296.212, 242.201 295.031 C 239.616 294.381, 235.326 292.758, 232.668 291.425 C 227.238 288.700, 227.294 288.716, 226.648 289.760 M 87.041 331.619 C 82.745 335.233, 81 339.043, 81 344.802 C 81 350.881, 83.980 355.742, 89.307 358.353 C 101.580 364.370, 115.279 348.170, 108.005 336.241 C 103.499 328.850, 93.065 326.550, 87.041 331.619 M 408.589 339.077 C 404.967 343.381, 405.092 348.246, 408.923 352.077 C 412.728 355.882, 417.621 356.032, 421.850 352.473 C 429.186 346.300, 425.140 336.075, 415.339 336.022 C 411.906 336.004, 410.725 336.538, 408.589 339.077 M 117 365.689 C 111.434 367.812, 110.159 374.407, 114.635 377.927 C 120 382.147, 127 379.140, 127 372.616 C 127 367.759, 121.521 363.964, 117 365.689 M 378.039 372.189 C 374.047 376.473, 376.927 383, 382.809 383 C 388.800 383, 391.639 377.353, 387.984 372.707 C 385.319 369.319, 380.925 369.090, 378.039 372.189 M 127.277 393.947 C 121.693 397.396, 121.732 405.146, 127.347 407.838 C 132.726 410.416, 139 406.424, 139 400.422 C 139 393.841, 132.902 390.473, 127.277 393.947 M 162.190 408.026 C 153.801 413.140, 154.308 426.409, 163.077 431.225 C 168.865 434.404, 177.538 432.101, 181.025 426.460 C 184.946 420.115, 182.539 410.881, 176.094 407.549 C 171.970 405.416, 166.142 405.616, 162.190 408.026 M 343.314 408.950 C 339.198 411.460, 338 413.820, 338 419.418 C 338 423.033, 338.600 424.640, 340.918 427.234 C 343.479 430.100, 344.450 430.500, 348.852 430.500 C 353.035 430.500, 354.376 430.014, 356.922 427.575 C 360.720 423.936, 361.655 419.504, 359.641 414.684 C 357.963 410.667, 352.890 407.007, 349 407.007 C 347.625 407.007, 345.066 407.882, 343.314 408.950 M 98.235 415.543 C 93.680 417.458, 91.468 422.280, 92.920 427.126 C 94.350 431.899, 97.292 434, 102.548 434 C 109.736 434, 113.671 427.324, 110.466 420.569 C 108.564 416.560, 108.135 416.186, 104.138 415.040 C 102.353 414.528, 100.217 414.710, 98.235 415.543 M 194.455 439.455 C 191.290 442.619, 191.113 448.603, 194.073 452.365 C 198.553 458.061, 208.426 454.533, 209.657 446.796 C 210.166 443.596, 209.832 442.679, 207.200 440.046 C 203.254 436.100, 198.050 435.859, 194.455 439.455 M 132.455 446.455 C 129.231 449.678, 129.300 453.305, 132.635 455.927 C 135.856 458.462, 138.103 458.547, 140.949 456.242 C 143.997 453.774, 144.048 448.267, 141.046 445.836 C 137.967 443.343, 135.380 443.529, 132.455 446.455 M 256 457 C 249.833 463.167, 258.440 472.897, 264.811 466.961 C 269.153 462.916, 266.300 455, 260.500 455 C 259.125 455, 257.100 455.900, 256 457" stroke="none" fill="black" fill-rule="evenodd"/>
</svg>