<svg xmlns="http://www.w3.org/2000/svg" width="512" height="512" viewBox="0 0 512 512" version="1.1">
	<path d="M 239.828 24.116 C 201.069 26.624, 160.924 40.545, 125.500 63.759 C 90.862 86.458, 65.874 114.858, 47.422 152.500 C 31.552 184.877, 24 218.300, 24 256.169 C 24 283.142, 27.467 304.346, 36.155 330.500 C 55.479 388.674, 95.753 434.416, 151.500 461.508 C 185.793 478.174, 215.588 485, 254.041 485 C 294.604 485, 327.884 477.137, 363.940 459.033 C 406.112 437.859, 442.550 401.851, 462.879 361.261 C 473.680 339.696, 480.949 317.889, 485.133 294.500 C 488.178 277.476, 488.448 243.283, 485.685 224.500 C 481.759 197.817, 474.651 174.866, 462.922 151 C 440.391 105.154, 407.868 72.901, 359.500 48.435 C 321.991 29.463, 282.187 21.374, 239.828 24.116 M 234.500 39.687 C 192.081 45.166, 154.247 60.196, 122.030 84.366 C 102.833 98.769, 83.575 119.559, 71.824 138.569 C 63.188 152.540, 62.551 153.980, 64.260 155.688 C 65.052 156.480, 73.880 159.976, 83.877 163.457 C 96.595 167.886, 104.825 171.433, 111.278 175.267 C 124.905 183.365, 128.952 185.237, 131.366 184.561 C 132.540 184.232, 135.273 181.477, 137.440 178.438 C 141.873 172.220, 150.136 166.215, 158.632 163.036 C 166.965 159.919, 175.197 159.067, 185.101 160.298 C 198.315 161.940, 203.170 159.054, 205.051 148.436 C 207.534 134.427, 211.918 125.035, 219.866 116.700 C 226.196 110.063, 231.440 106.674, 240.388 103.438 L 246.500 101.228 247.128 86.364 C 247.474 78.189, 248.727 64.621, 249.914 56.213 C 251.101 47.805, 251.804 40.492, 251.477 39.963 C 250.907 39.040, 240.782 38.876, 234.500 39.687 M 259.019 42.608 C 259.029 44.748, 259.921 52.575, 261 60 C 262.149 67.906, 262.970 78.940, 262.981 86.628 C 263.002 101.040, 262.960 100.935, 269.500 103.006 C 283.828 107.544, 296.673 119.578, 301.560 133.043 C 302.450 135.494, 303.943 141.289, 304.878 145.921 C 306.426 153.593, 306.916 154.616, 310.388 157.421 L 314.199 160.500 328.893 160.170 C 341.834 159.879, 344.358 160.097, 350.044 161.998 C 360.694 165.557, 369.078 172.038, 376.624 182.543 L 378.749 185.500 385.124 182.249 C 388.631 180.461, 394.875 177.191, 399 174.982 C 405.516 171.494, 420.236 166, 423.066 166 C 424.368 166, 427.992 172.067, 427.996 174.254 C 428.004 178.084, 404.511 193.041, 393.329 196.326 C 383.973 199.075, 384.150 198.830, 384.718 208.227 C 385.520 221.482, 381.537 233.568, 373.259 243 C 367.980 249.015, 366.999 251.083, 367.005 256.184 C 367.011 260.748, 367.639 261.954, 375.188 271.884 C 383.436 282.735, 387.240 297.269, 385.147 309.943 C 383.623 319.171, 383.489 318.682, 387.750 319.477 C 389.813 319.862, 394.975 321.515, 399.221 323.150 C 406.170 325.826, 412.824 329.607, 440.949 346.863 C 451.020 353.043, 450.787 353.147, 456.289 340 C 462.984 324.002, 467.860 306.739, 470.593 289.363 C 472.927 274.520, 472.943 243.758, 470.624 227.500 C 463.498 177.533, 443.064 135.083, 410.840 103.303 C 398.363 90.998, 390.859 84.900, 377 75.803 C 344.246 54.304, 307.438 41.780, 270.052 39.415 L 259 38.715 259.019 42.608 M 245.994 116.934 C 237.131 119.630, 227.485 128.301, 223.520 137.134 C 221.167 142.378, 220.843 144.227, 221.165 150.591 L 221.537 157.968 215.519 161.144 C 207.319 165.472, 201.403 169.575, 195.703 174.889 L 190.906 179.361 183.914 177.548 C 167.414 173.268, 151.184 180.744, 144.176 195.852 C 140.721 203.300, 140.492 215.090, 143.665 222.089 C 146.100 227.461, 151.533 233.200, 156.687 235.844 L 160.335 237.715 160.488 252.108 C 160.572 260.023, 161.001 268.393, 161.441 270.706 L 162.241 274.912 156.639 277.564 C 150.445 280.497, 144.941 285.955, 142.357 291.728 C 139.695 297.674, 139.953 311.312, 142.832 316.795 C 146.284 323.371, 151.597 328.655, 157.839 331.720 C 162.563 334.040, 164.741 334.489, 171 334.435 C 177.292 334.381, 179.590 333.853, 185.268 331.157 L 192.036 327.944 200.371 332.867 C 204.955 335.575, 211.943 339.054, 215.899 340.600 L 223.093 343.409 222.465 348.455 C 221.104 359.382, 229.006 371.448, 241.522 377.556 C 246.686 380.076, 248.658 380.475, 256 380.487 C 263.239 380.498, 265.320 380.097, 270.030 377.784 C 282.087 371.863, 289.493 361.816, 289.367 351.552 C 289.332 348.773, 289.123 345.919, 288.902 345.209 C 288.647 344.389, 291.125 342.885, 295.699 341.085 C 299.658 339.526, 306.538 336.116, 310.989 333.507 L 319.080 328.763 325.290 331.622 C 330.470 334.006, 332.827 334.482, 339.500 334.490 C 346.250 334.498, 348.391 334.062, 353.203 331.700 C 360.159 328.284, 367.235 320.693, 369.408 314.316 C 370.284 311.746, 371 306.421, 371 302.482 C 371 290.403, 365.005 280.954, 354.577 276.597 C 351.671 275.382, 350.936 274.609, 351.441 273.294 C 352.957 269.341, 354.219 254.969, 353.758 246.888 C 353.283 238.551, 353.356 238.159, 355.578 237.147 C 360.050 235.109, 365.784 228.931, 368.014 223.746 C 371.080 216.618, 371.117 205.711, 368.101 197.853 C 361.996 181.948, 343.730 172.739, 327.592 177.430 L 321.828 179.106 318.664 176.523 C 316.924 175.103, 312.863 171.737, 309.640 169.043 C 306.417 166.349, 300.600 162.563, 296.714 160.630 L 289.648 157.114 289.541 149.307 C 289.452 142.847, 288.954 140.578, 286.654 136.160 C 282.698 128.559, 276.743 122.527, 269.738 119.027 C 264.513 116.416, 262.638 116.012, 256.090 116.086 C 251.916 116.133, 247.372 116.515, 245.994 116.934 M 244.500 161.715 C 218.718 165.280, 193.005 184.123, 180.802 208.394 C 174.406 221.114, 171.769 232.886, 171.706 249 C 171.641 265.375, 173.882 275.830, 180.375 289.440 C 188.574 306.628, 201.266 319.803, 217.904 328.396 C 232.235 335.798, 239.815 337.520, 257.500 337.390 C 270.728 337.293, 273.563 336.960, 281.500 334.574 C 296.135 330.174, 305.153 324.848, 315.500 314.493 C 327.755 302.229, 333.260 292.457, 338.175 274.242 C 340.900 264.141, 341.141 243.086, 338.655 232.147 C 336.527 222.782, 332.136 211.816, 326.855 202.675 C 321.874 194.054, 306.135 178.071, 297.796 173.167 C 281.310 163.471, 261.923 159.305, 244.500 161.715 M 58.188 165.276 C 56.735 167.031, 51.738 179.923, 48.218 191 C 41.878 210.947, 39 230.981, 39 255.173 C 39 273.038, 40.766 289.875, 44.173 304.500 C 46.986 316.571, 54.210 337.481, 58.535 346.070 C 62.700 354.340, 60.882 354.725, 79 341.735 C 93.311 331.474, 105.794 324.830, 117.974 320.991 L 126.448 318.320 125.974 313.910 C 123.865 294.280, 127.717 281.546, 139.589 268.906 C 145.736 262.360, 146 261.870, 146 256.990 C 146 251.015, 144.507 247.785, 139.539 243.009 C 131.274 235.064, 126.824 223.662, 126.547 209.727 C 126.441 204.352, 125.937 199.579, 125.427 199.121 C 124.917 198.663, 120.547 197.079, 115.716 195.601 C 104.682 192.226, 95.669 187.490, 78.801 176.205 C 62.026 164.980, 59.529 163.657, 58.188 165.276 M 241.500 183.487 C 219.664 189.409, 202.834 205.679, 195.977 227.500 C 192.955 237.117, 192.177 256.523, 194.396 266.965 C 197.722 282.617, 206.237 295.669, 218.451 303.839 C 228.485 310.550, 236.186 313.082, 248.506 313.721 C 263.780 314.514, 277.945 309.986, 291 300.138 C 302.045 291.807, 311.212 277.229, 314.040 263.500 C 320.099 234.080, 304.672 200.266, 279.415 187.609 C 268.555 182.166, 252.720 180.445, 241.500 183.487 M 246.994 226.934 C 240.133 229.021, 232.878 235.208, 229.557 241.804 C 221.237 258.325, 234.886 279.273, 254 279.317 C 266.963 279.348, 279.120 271.069, 282.417 259.966 C 284.377 253.367, 284.377 252.632, 282.411 246.013 C 280.308 238.931, 271.725 230.108, 264.572 227.676 C 259.479 225.944, 251.374 225.602, 246.994 226.934 M 249.001 238.123 C 247.626 238.672, 245.446 240.106, 244.155 241.310 C 233.707 251.066, 240.135 267.016, 254.500 266.980 C 270.877 266.938, 278.087 247.121, 264.696 238.956 C 261.197 236.823, 253.311 236.405, 249.001 238.123 M 121.915 337.112 C 108.199 345.445, 100.832 348.766, 83.306 354.519 C 74.170 357.518, 66.508 360.159, 66.280 360.387 C 65.532 361.135, 71.151 371.338, 77.082 380 C 98.261 410.931, 132.610 437.904, 170.500 453.357 C 193.203 462.616, 217.316 468.517, 237.745 469.814 C 252.936 470.778, 252.319 471.049, 251.732 463.655 C 251.464 460.270, 250.238 450.075, 249.010 441 C 247.257 428.058, 246.889 421.658, 247.301 411.322 C 247.891 396.517, 247.682 395.892, 241.500 393.990 C 224.969 388.903, 210.971 374.284, 206.636 357.578 C 205.791 354.320, 204.204 350.760, 203.109 349.665 C 200.127 346.683, 191.936 346.358, 184.593 348.931 C 170.423 353.895, 153.106 349.559, 139.046 337.524 C 135.497 334.486, 132.084 332, 131.462 332 C 130.839 332, 126.543 334.301, 121.915 337.112 M 373.130 337.084 C 360.023 349.308, 341.472 353.854, 324.500 349 C 320.654 347.900, 316.302 347, 314.830 347 C 310.265 347, 306.276 351.366, 304.030 358.821 C 299.169 374.957, 287.705 387.010, 271.555 392.966 L 264.500 395.568 263.876 416.534 C 263.533 428.065, 262.555 442.450, 261.701 448.500 C 258.890 468.428, 258.768 469.739, 259.673 470.298 C 260.166 470.603, 265.729 470.416, 272.035 469.883 C 304.073 467.177, 342.148 454.822, 371.154 437.719 C 399.370 421.083, 426.001 395.030, 441.847 368.563 C 444.131 364.748, 446 361.329, 446 360.965 C 446 359.924, 439.332 357.355, 429 354.416 C 412.243 349.649, 404.451 346.298, 387.524 336.579 C 383.138 334.061, 379.313 332.017, 379.024 332.038 C 378.736 332.059, 376.084 334.330, 373.130 337.084" stroke="none" fill="black" fill-rule="evenodd"/>
</svg>